<?xml version="1.0" encoding="utf-8"?>
<!-- Generator: Adobe Illustrator 26.1.0, SVG Export Plug-In . SVG Version: 6.00 Build 0)  -->
<svg version="1.1" id="レイヤー_1" xmlns="http://www.w3.org/2000/svg" xmlns:xlink="http://www.w3.org/1999/xlink" x="0px"
	 y="0px" viewBox="0 0 256 256" style="enable-background:new 0 0 256 256;" xml:space="preserve">
<style type="text/css">
	.st0{fill:#009688;}
</style>
<g>
	<path class="st0" d="M23.81,157.31c5.74,4.34,11.82,7.87,18.26,10.58c6.43,2.72,12.6,4.07,18.49,4.07c6.98,0,11.82-0.93,14.54-2.79
		c2.71-1.86,4.07-4.5,4.07-7.91c0-1.86-0.46-3.41-1.4-4.65c-0.93-1.24-2.33-2.4-4.19-3.49c-1.86-1.08-4.15-2.13-6.86-3.14
		c-2.72-1.01-5.86-2.13-9.42-3.37l-18.84-7.91c-4.34-1.55-8.45-3.61-12.33-6.16c-3.88-2.56-7.25-5.58-10.12-9.07
		c-2.87-3.49-5.16-7.48-6.86-11.98c-1.71-4.5-2.56-9.46-2.56-14.89c0-6.51,1.4-12.6,4.19-18.26c2.79-5.66,6.71-10.62,11.75-14.89
		c5.04-4.26,11.09-7.64,18.15-10.12c7.06-2.48,14.93-3.72,23.61-3.72c8.99,0,17.99,1.63,26.99,4.89
		c8.99,3.26,17.21,8.38,24.66,15.35L95.92,94.97c-5.43-3.57-10.55-6.28-15.35-8.14c-4.81-1.86-10.24-2.79-16.28-2.79
		c-11.48,0-17.21,3.41-17.21,10.24c0,3.57,2.05,6.28,6.17,8.14c4.11,1.86,9.96,4.19,17.56,6.98l17.45,7.21
		c10.24,3.72,18.11,8.92,23.61,15.59c5.5,6.67,8.26,15.28,8.26,25.82c0,6.36-1.32,12.49-3.95,18.38
		c-2.64,5.9-6.51,11.05-11.63,15.47c-5.12,4.42-11.44,7.95-18.96,10.58c-7.52,2.64-16.17,3.96-25.94,3.96
		c-9.93,0-20.05-1.75-30.36-5.23c-10.32-3.49-19.74-8.96-28.26-16.4L23.81,157.31z"/>
	<path class="st0" d="M210.34,203.61l-26.05-50.71h-14.42V256h-40.01V52.39h56.3c8.06,0,15.78,0.78,23.15,2.33
		c7.36,1.55,13.8,4.19,19.31,7.91c5.5,3.72,9.89,8.72,13.14,15c3.26,6.28,4.89,14.15,4.89,23.61c0,10.86-2.21,19.85-6.63,26.99
		c-4.42,7.14-10.35,12.72-17.79,16.75l32.8,58.62H210.34z M169.86,121.25h13.49c16.13,0,24.19-6.67,24.19-20.01
		c0-6.51-2.06-11.01-6.17-13.49c-4.11-2.48-10.12-3.72-18.03-3.72h-13.49V121.25z"/>
</g>
</svg>
